M48
; DRILL file {KiCad (5.1.9-0-10_14)} date Thursday, April 08, 2021 at 02:44:06 PM
; FORMAT={-:-/ absolute / inch / decimal}
; #@! TF.CreationDate,2021-04-08T14:44:06+02:00
; #@! TF.GenerationSoftware,Kicad,Pcbnew,(5.1.9-0-10_14)
FMAT,2
INCH
T1C0.0276
T2C0.0469
T3C0.0512
T4C0.0551
T5C0.1063
T6C0.1693
T7C0.1772
%
G90
G05
T2
X6.6142Y-5.215
X6.6142Y-5.315
X6.6142Y-5.415
T3
X5.4626Y-2.562
X6.3484Y-2.562
T4
X5.1575Y-2.4591
X5.1575Y-2.6591
X5.1575Y-5.215
X5.1575Y-5.415
T5
X5.9055Y-2.562
T6
X4.9016Y-2.5591
X4.9016Y-5.315
X6.9094Y-2.5591
X6.9094Y-5.315
T7
X5.9055Y-3.937
X5.9055Y-3.937
X5.9055Y-3.937
T1
G00X4.8055Y-2.9272
M15
G01X4.8055Y-2.9469
M16
G05
G00X4.8055Y-3.1272
M15
G01X4.8055Y-3.1469
M16
G05
G00X4.8055Y-4.7272
M15
G01X4.8055Y-4.7469
M16
G05
G00X4.8055Y-4.9272
M15
G01X4.8055Y-4.9469
M16
G05
G00X4.9055Y-3.0272
M15
G01X4.9055Y-3.0469
M16
G05
G00X4.9055Y-3.2272
M15
G01X4.9055Y-3.2469
M16
G05
G00X4.9055Y-4.6272
M15
G01X4.9055Y-4.6469
M16
G05
G00X4.9055Y-4.8272
M15
G01X4.9055Y-4.8469
M16
G05
G00X5.0055Y-3.1272
M15
G01X5.0055Y-3.1469
M16
G05
G00X5.0055Y-3.3272
M15
G01X5.0055Y-3.3469
M16
G05
G00X5.0055Y-4.5272
M15
G01X5.0055Y-4.5469
M16
G05
G00X5.0055Y-4.7272
M15
G01X5.0055Y-4.7469
M16
G05
G00X6.8055Y-3.0272
M15
G01X6.8055Y-3.0469
M16
G05
G00X6.8055Y-3.2272
M15
G01X6.8055Y-3.2469
M16
G05
G00X6.8055Y-4.6272
M15
G01X6.8055Y-4.6469
M16
G05
G00X6.8055Y-4.8272
M15
G01X6.8055Y-4.8469
M16
G05
G00X6.9055Y-2.9272
M15
G01X6.9055Y-2.9469
M16
G05
G00X6.9055Y-3.1272
M15
G01X6.9055Y-3.1469
M16
G05
G00X6.9055Y-4.7272
M15
G01X6.9055Y-4.7469
M16
G05
G00X6.9055Y-4.9272
M15
G01X6.9055Y-4.9469
M16
G05
G00X7.0055Y-2.8272
M15
G01X7.0055Y-2.8469
M16
G05
G00X7.0055Y-3.0272
M15
G01X7.0055Y-3.0469
M16
G05
G00X7.0055Y-4.8272
M15
G01X7.0055Y-4.8469
M16
G05
G00X7.0055Y-5.0272
M15
G01X7.0055Y-5.0469
M16
G05
T0
M30
