%TF.GenerationSoftware,KiCad,Pcbnew,(5.1.9-0-10_14)*%
%TF.CreationDate,2021-04-08T14:44:04+02:00*%
%TF.ProjectId,Transformer-DBX286s,5472616e-7366-46f7-926d-65722d444258,rev?*%
%TF.SameCoordinates,Original*%
%TF.FileFunction,Copper,L1,Top*%
%TF.FilePolarity,Positive*%
%FSLAX46Y46*%
G04 Gerber Fmt 4.6, Leading zero omitted, Abs format (unit mm)*
G04 Created by KiCad (PCBNEW (5.1.9-0-10_14)) date 2021-04-08 14:44:04*
%MOMM*%
%LPD*%
G01*
G04 APERTURE LIST*
%TA.AperFunction,ComponentPad*%
%ADD10O,2.190000X1.740000*%
%TD*%
%TA.AperFunction,ComponentPad*%
%ADD11C,2.000000*%
%TD*%
%TA.AperFunction,ComponentPad*%
%ADD12O,1.300000X1.800000*%
%TD*%
%TA.AperFunction,ComponentPad*%
%ADD13C,3.000000*%
%TD*%
G04 APERTURE END LIST*
D10*
%TO.P,J3,3*%
%TO.N,/OUT3*%
X168000000Y-137540000D03*
%TO.P,J3,2*%
%TO.N,/OUT2*%
X168000000Y-135000000D03*
%TO.P,J3,1*%
%TO.N,/OUT1*%
%TA.AperFunction,ComponentPad*%
G36*
G01*
X167154999Y-131590000D02*
X168845001Y-131590000D01*
G75*
G02*
X169095000Y-131839999I0J-249999D01*
G01*
X169095000Y-133080001D01*
G75*
G02*
X168845001Y-133330000I-249999J0D01*
G01*
X167154999Y-133330000D01*
G75*
G02*
X166905000Y-133080001I0J249999D01*
G01*
X166905000Y-131839999D01*
G75*
G02*
X167154999Y-131590000I249999J0D01*
G01*
G37*
%TD.AperFunction*%
%TD*%
D11*
%TO.P,J2,1*%
%TO.N,/IN2*%
X131000000Y-132460000D03*
X131000000Y-137540000D03*
%TD*%
D12*
%TO.P,T2,4*%
%TO.N,/IN2*%
X124600000Y-122860000D03*
%TO.P,T2,3*%
%TO.N,/IN3*%
X124600000Y-117780000D03*
%TO.P,T2,2*%
X124600000Y-82220000D03*
%TO.P,T2,1*%
%TO.N,/IN1*%
X124600000Y-77140000D03*
%TO.P,T2,5*%
%TO.N,/OUT1*%
X175400000Y-74600000D03*
%TO.P,T2,6*%
%TO.N,/OUT2*%
X175400000Y-79680000D03*
%TO.P,T2,7*%
X175400000Y-120320000D03*
%TO.P,T2,8*%
%TO.N,/OUT3*%
X175400000Y-125400000D03*
%TD*%
%TO.P,T3,4*%
%TO.N,/IN2*%
X127140000Y-120320000D03*
%TO.P,T3,3*%
%TO.N,/IN3*%
X127140000Y-115240000D03*
%TO.P,T3,2*%
X127140000Y-84760000D03*
%TO.P,T3,1*%
%TO.N,/IN1*%
X127140000Y-79680000D03*
%TO.P,T3,5*%
%TO.N,/OUT1*%
X172860000Y-77140000D03*
%TO.P,T3,6*%
%TO.N,/OUT2*%
X172860000Y-82220000D03*
%TO.P,T3,7*%
X172860000Y-117780000D03*
%TO.P,T3,8*%
%TO.N,/OUT3*%
X172860000Y-122860000D03*
%TD*%
D13*
%TO.P,F1,2*%
%TO.N,Net-(F1-Pad2)*%
X138750000Y-65075000D03*
%TO.P,F1,1*%
%TO.N,/IN1*%
X161250000Y-65075000D03*
%TD*%
D12*
%TO.P,T1,8*%
%TO.N,/OUT3*%
X177940000Y-127940000D03*
%TO.P,T1,7*%
%TO.N,/OUT2*%
X177940000Y-122860000D03*
%TO.P,T1,6*%
X177940000Y-77140000D03*
%TO.P,T1,5*%
%TO.N,/OUT1*%
X177940000Y-72060000D03*
%TO.P,T1,1*%
%TO.N,/IN1*%
X122060000Y-74600000D03*
%TO.P,T1,2*%
%TO.N,/IN3*%
X122060000Y-79680000D03*
%TO.P,T1,3*%
X122060000Y-120320000D03*
%TO.P,T1,4*%
%TO.N,/IN2*%
X122060000Y-125400000D03*
%TD*%
D11*
%TO.P,J1,1*%
%TO.N,Net-(F1-Pad2)*%
X131000000Y-67540000D03*
X131000000Y-62460000D03*
%TD*%
M02*
