%TF.GenerationSoftware,KiCad,Pcbnew,(5.1.9-0-10_14)*%
%TF.CreationDate,2021-04-08T14:44:04+02:00*%
%TF.ProjectId,Transformer-DBX286s,5472616e-7366-46f7-926d-65722d444258,rev?*%
%TF.SameCoordinates,Original*%
%TF.FileFunction,Legend,Top*%
%TF.FilePolarity,Positive*%
%FSLAX46Y46*%
G04 Gerber Fmt 4.6, Leading zero omitted, Abs format (unit mm)*
G04 Created by KiCad (PCBNEW (5.1.9-0-10_14)) date 2021-04-08 14:44:04*
%MOMM*%
%LPD*%
G01*
G04 APERTURE LIST*
%ADD10C,0.150000*%
%ADD11C,0.120000*%
G04 APERTURE END LIST*
D10*
X136365595Y-133727380D02*
X136365595Y-132727380D01*
X136603690Y-132727380D01*
X136746547Y-132775000D01*
X136841785Y-132870238D01*
X136889404Y-132965476D01*
X136937023Y-133155952D01*
X136937023Y-133298809D01*
X136889404Y-133489285D01*
X136841785Y-133584523D01*
X136746547Y-133679761D01*
X136603690Y-133727380D01*
X136365595Y-133727380D01*
X137698928Y-133203571D02*
X137841785Y-133251190D01*
X137889404Y-133298809D01*
X137937023Y-133394047D01*
X137937023Y-133536904D01*
X137889404Y-133632142D01*
X137841785Y-133679761D01*
X137746547Y-133727380D01*
X137365595Y-133727380D01*
X137365595Y-132727380D01*
X137698928Y-132727380D01*
X137794166Y-132775000D01*
X137841785Y-132822619D01*
X137889404Y-132917857D01*
X137889404Y-133013095D01*
X137841785Y-133108333D01*
X137794166Y-133155952D01*
X137698928Y-133203571D01*
X137365595Y-133203571D01*
X138270357Y-132727380D02*
X138937023Y-133727380D01*
X138937023Y-132727380D02*
X138270357Y-133727380D01*
X140032261Y-132822619D02*
X140079880Y-132775000D01*
X140175119Y-132727380D01*
X140413214Y-132727380D01*
X140508452Y-132775000D01*
X140556071Y-132822619D01*
X140603690Y-132917857D01*
X140603690Y-133013095D01*
X140556071Y-133155952D01*
X139984642Y-133727380D01*
X140603690Y-133727380D01*
X141175119Y-133155952D02*
X141079880Y-133108333D01*
X141032261Y-133060714D01*
X140984642Y-132965476D01*
X140984642Y-132917857D01*
X141032261Y-132822619D01*
X141079880Y-132775000D01*
X141175119Y-132727380D01*
X141365595Y-132727380D01*
X141460833Y-132775000D01*
X141508452Y-132822619D01*
X141556071Y-132917857D01*
X141556071Y-132965476D01*
X141508452Y-133060714D01*
X141460833Y-133108333D01*
X141365595Y-133155952D01*
X141175119Y-133155952D01*
X141079880Y-133203571D01*
X141032261Y-133251190D01*
X140984642Y-133346428D01*
X140984642Y-133536904D01*
X141032261Y-133632142D01*
X141079880Y-133679761D01*
X141175119Y-133727380D01*
X141365595Y-133727380D01*
X141460833Y-133679761D01*
X141508452Y-133632142D01*
X141556071Y-133536904D01*
X141556071Y-133346428D01*
X141508452Y-133251190D01*
X141460833Y-133203571D01*
X141365595Y-133155952D01*
X142413214Y-132727380D02*
X142222738Y-132727380D01*
X142127500Y-132775000D01*
X142079880Y-132822619D01*
X141984642Y-132965476D01*
X141937023Y-133155952D01*
X141937023Y-133536904D01*
X141984642Y-133632142D01*
X142032261Y-133679761D01*
X142127500Y-133727380D01*
X142317976Y-133727380D01*
X142413214Y-133679761D01*
X142460833Y-133632142D01*
X142508452Y-133536904D01*
X142508452Y-133298809D01*
X142460833Y-133203571D01*
X142413214Y-133155952D01*
X142317976Y-133108333D01*
X142127500Y-133108333D01*
X142032261Y-133155952D01*
X141984642Y-133203571D01*
X141937023Y-133298809D01*
X142889404Y-133679761D02*
X142984642Y-133727380D01*
X143175119Y-133727380D01*
X143270357Y-133679761D01*
X143317976Y-133584523D01*
X143317976Y-133536904D01*
X143270357Y-133441666D01*
X143175119Y-133394047D01*
X143032261Y-133394047D01*
X142937023Y-133346428D01*
X142889404Y-133251190D01*
X142889404Y-133203571D01*
X142937023Y-133108333D01*
X143032261Y-133060714D01*
X143175119Y-133060714D01*
X143270357Y-133108333D01*
X144365595Y-133060714D02*
X144746547Y-133060714D01*
X144508452Y-132727380D02*
X144508452Y-133584523D01*
X144556071Y-133679761D01*
X144651309Y-133727380D01*
X144746547Y-133727380D01*
X145222738Y-133727380D02*
X145127500Y-133679761D01*
X145079880Y-133632142D01*
X145032261Y-133536904D01*
X145032261Y-133251190D01*
X145079880Y-133155952D01*
X145127500Y-133108333D01*
X145222738Y-133060714D01*
X145365595Y-133060714D01*
X145460833Y-133108333D01*
X145508452Y-133155952D01*
X145556071Y-133251190D01*
X145556071Y-133536904D01*
X145508452Y-133632142D01*
X145460833Y-133679761D01*
X145365595Y-133727380D01*
X145222738Y-133727380D01*
X145984642Y-133727380D02*
X145984642Y-133060714D01*
X145984642Y-133251190D02*
X146032261Y-133155952D01*
X146079880Y-133108333D01*
X146175119Y-133060714D01*
X146270357Y-133060714D01*
X146746547Y-133727380D02*
X146651309Y-133679761D01*
X146603690Y-133632142D01*
X146556071Y-133536904D01*
X146556071Y-133251190D01*
X146603690Y-133155952D01*
X146651309Y-133108333D01*
X146746547Y-133060714D01*
X146889404Y-133060714D01*
X146984642Y-133108333D01*
X147032261Y-133155952D01*
X147079880Y-133251190D01*
X147079880Y-133536904D01*
X147032261Y-133632142D01*
X146984642Y-133679761D01*
X146889404Y-133727380D01*
X146746547Y-133727380D01*
X147508452Y-133727380D02*
X147508452Y-133060714D01*
X147508452Y-132727380D02*
X147460833Y-132775000D01*
X147508452Y-132822619D01*
X147556071Y-132775000D01*
X147508452Y-132727380D01*
X147508452Y-132822619D01*
X148413214Y-133727380D02*
X148413214Y-132727380D01*
X148413214Y-133679761D02*
X148317976Y-133727380D01*
X148127500Y-133727380D01*
X148032261Y-133679761D01*
X147984642Y-133632142D01*
X147937023Y-133536904D01*
X147937023Y-133251190D01*
X147984642Y-133155952D01*
X148032261Y-133108333D01*
X148127500Y-133060714D01*
X148317976Y-133060714D01*
X148413214Y-133108333D01*
X149317976Y-133727380D02*
X149317976Y-133203571D01*
X149270357Y-133108333D01*
X149175119Y-133060714D01*
X148984642Y-133060714D01*
X148889404Y-133108333D01*
X149317976Y-133679761D02*
X149222738Y-133727380D01*
X148984642Y-133727380D01*
X148889404Y-133679761D01*
X148841785Y-133584523D01*
X148841785Y-133489285D01*
X148889404Y-133394047D01*
X148984642Y-133346428D01*
X149222738Y-133346428D01*
X149317976Y-133298809D01*
X149937023Y-133727380D02*
X149841785Y-133679761D01*
X149794166Y-133584523D01*
X149794166Y-132727380D01*
X150937023Y-133060714D02*
X151317976Y-133060714D01*
X151079880Y-132727380D02*
X151079880Y-133584523D01*
X151127500Y-133679761D01*
X151222738Y-133727380D01*
X151317976Y-133727380D01*
X151651309Y-133727380D02*
X151651309Y-133060714D01*
X151651309Y-133251190D02*
X151698928Y-133155952D01*
X151746547Y-133108333D01*
X151841785Y-133060714D01*
X151937023Y-133060714D01*
X152698928Y-133727380D02*
X152698928Y-133203571D01*
X152651309Y-133108333D01*
X152556071Y-133060714D01*
X152365595Y-133060714D01*
X152270357Y-133108333D01*
X152698928Y-133679761D02*
X152603690Y-133727380D01*
X152365595Y-133727380D01*
X152270357Y-133679761D01*
X152222738Y-133584523D01*
X152222738Y-133489285D01*
X152270357Y-133394047D01*
X152365595Y-133346428D01*
X152603690Y-133346428D01*
X152698928Y-133298809D01*
X153175119Y-133060714D02*
X153175119Y-133727380D01*
X153175119Y-133155952D02*
X153222738Y-133108333D01*
X153317976Y-133060714D01*
X153460833Y-133060714D01*
X153556071Y-133108333D01*
X153603690Y-133203571D01*
X153603690Y-133727380D01*
X154032261Y-133679761D02*
X154127500Y-133727380D01*
X154317976Y-133727380D01*
X154413214Y-133679761D01*
X154460833Y-133584523D01*
X154460833Y-133536904D01*
X154413214Y-133441666D01*
X154317976Y-133394047D01*
X154175119Y-133394047D01*
X154079880Y-133346428D01*
X154032261Y-133251190D01*
X154032261Y-133203571D01*
X154079880Y-133108333D01*
X154175119Y-133060714D01*
X154317976Y-133060714D01*
X154413214Y-133108333D01*
X154746547Y-133060714D02*
X155127500Y-133060714D01*
X154889404Y-133727380D02*
X154889404Y-132870238D01*
X154937023Y-132775000D01*
X155032261Y-132727380D01*
X155127500Y-132727380D01*
X155603690Y-133727380D02*
X155508452Y-133679761D01*
X155460833Y-133632142D01*
X155413214Y-133536904D01*
X155413214Y-133251190D01*
X155460833Y-133155952D01*
X155508452Y-133108333D01*
X155603690Y-133060714D01*
X155746547Y-133060714D01*
X155841785Y-133108333D01*
X155889404Y-133155952D01*
X155937023Y-133251190D01*
X155937023Y-133536904D01*
X155889404Y-133632142D01*
X155841785Y-133679761D01*
X155746547Y-133727380D01*
X155603690Y-133727380D01*
X156365595Y-133727380D02*
X156365595Y-133060714D01*
X156365595Y-133251190D02*
X156413214Y-133155952D01*
X156460833Y-133108333D01*
X156556071Y-133060714D01*
X156651309Y-133060714D01*
X156984642Y-133727380D02*
X156984642Y-133060714D01*
X156984642Y-133155952D02*
X157032261Y-133108333D01*
X157127500Y-133060714D01*
X157270357Y-133060714D01*
X157365595Y-133108333D01*
X157413214Y-133203571D01*
X157413214Y-133727380D01*
X157413214Y-133203571D02*
X157460833Y-133108333D01*
X157556071Y-133060714D01*
X157698928Y-133060714D01*
X157794166Y-133108333D01*
X157841785Y-133203571D01*
X157841785Y-133727380D01*
X158698928Y-133679761D02*
X158603690Y-133727380D01*
X158413214Y-133727380D01*
X158317976Y-133679761D01*
X158270357Y-133584523D01*
X158270357Y-133203571D01*
X158317976Y-133108333D01*
X158413214Y-133060714D01*
X158603690Y-133060714D01*
X158698928Y-133108333D01*
X158746547Y-133203571D01*
X158746547Y-133298809D01*
X158270357Y-133394047D01*
X159175119Y-133727380D02*
X159175119Y-133060714D01*
X159175119Y-133251190D02*
X159222738Y-133155952D01*
X159270357Y-133108333D01*
X159365595Y-133060714D01*
X159460833Y-133060714D01*
X136937023Y-135377380D02*
X136603690Y-134901190D01*
X136365595Y-135377380D02*
X136365595Y-134377380D01*
X136746547Y-134377380D01*
X136841785Y-134425000D01*
X136889404Y-134472619D01*
X136937023Y-134567857D01*
X136937023Y-134710714D01*
X136889404Y-134805952D01*
X136841785Y-134853571D01*
X136746547Y-134901190D01*
X136365595Y-134901190D01*
X137746547Y-135329761D02*
X137651309Y-135377380D01*
X137460833Y-135377380D01*
X137365595Y-135329761D01*
X137317976Y-135234523D01*
X137317976Y-134853571D01*
X137365595Y-134758333D01*
X137460833Y-134710714D01*
X137651309Y-134710714D01*
X137746547Y-134758333D01*
X137794166Y-134853571D01*
X137794166Y-134948809D01*
X137317976Y-135044047D01*
X138127500Y-134710714D02*
X138365595Y-135377380D01*
X138603690Y-134710714D01*
X138984642Y-135282142D02*
X139032261Y-135329761D01*
X138984642Y-135377380D01*
X138937023Y-135329761D01*
X138984642Y-135282142D01*
X138984642Y-135377380D01*
X140651309Y-134710714D02*
X140651309Y-135377380D01*
X140413214Y-134329761D02*
X140175119Y-135044047D01*
X140794166Y-135044047D01*
X141222738Y-135329761D02*
X141222738Y-135377380D01*
X141175119Y-135472619D01*
X141127500Y-135520238D01*
X142365595Y-134472619D02*
X142413214Y-134425000D01*
X142508452Y-134377380D01*
X142746547Y-134377380D01*
X142841785Y-134425000D01*
X142889404Y-134472619D01*
X142937023Y-134567857D01*
X142937023Y-134663095D01*
X142889404Y-134805952D01*
X142317976Y-135377380D01*
X142937023Y-135377380D01*
X143556071Y-134377380D02*
X143651309Y-134377380D01*
X143746547Y-134425000D01*
X143794166Y-134472619D01*
X143841785Y-134567857D01*
X143889404Y-134758333D01*
X143889404Y-134996428D01*
X143841785Y-135186904D01*
X143794166Y-135282142D01*
X143746547Y-135329761D01*
X143651309Y-135377380D01*
X143556071Y-135377380D01*
X143460833Y-135329761D01*
X143413214Y-135282142D01*
X143365595Y-135186904D01*
X143317976Y-134996428D01*
X143317976Y-134758333D01*
X143365595Y-134567857D01*
X143413214Y-134472619D01*
X143460833Y-134425000D01*
X143556071Y-134377380D01*
X144270357Y-134472619D02*
X144317976Y-134425000D01*
X144413214Y-134377380D01*
X144651309Y-134377380D01*
X144746547Y-134425000D01*
X144794166Y-134472619D01*
X144841785Y-134567857D01*
X144841785Y-134663095D01*
X144794166Y-134805952D01*
X144222738Y-135377380D01*
X144841785Y-135377380D01*
X145794166Y-135377380D02*
X145222738Y-135377380D01*
X145508452Y-135377380D02*
X145508452Y-134377380D01*
X145413214Y-134520238D01*
X145317976Y-134615476D01*
X145222738Y-134663095D01*
X146222738Y-134996428D02*
X146984642Y-134996428D01*
X147651309Y-134377380D02*
X147746547Y-134377380D01*
X147841785Y-134425000D01*
X147889404Y-134472619D01*
X147937023Y-134567857D01*
X147984642Y-134758333D01*
X147984642Y-134996428D01*
X147937023Y-135186904D01*
X147889404Y-135282142D01*
X147841785Y-135329761D01*
X147746547Y-135377380D01*
X147651309Y-135377380D01*
X147556071Y-135329761D01*
X147508452Y-135282142D01*
X147460833Y-135186904D01*
X147413214Y-134996428D01*
X147413214Y-134758333D01*
X147460833Y-134567857D01*
X147508452Y-134472619D01*
X147556071Y-134425000D01*
X147651309Y-134377380D01*
X148841785Y-134710714D02*
X148841785Y-135377380D01*
X148603690Y-134329761D02*
X148365595Y-135044047D01*
X148984642Y-135044047D01*
X149365595Y-134996428D02*
X150127500Y-134996428D01*
X150794166Y-134377380D02*
X150889404Y-134377380D01*
X150984642Y-134425000D01*
X151032261Y-134472619D01*
X151079880Y-134567857D01*
X151127500Y-134758333D01*
X151127500Y-134996428D01*
X151079880Y-135186904D01*
X151032261Y-135282142D01*
X150984642Y-135329761D01*
X150889404Y-135377380D01*
X150794166Y-135377380D01*
X150698928Y-135329761D01*
X150651309Y-135282142D01*
X150603690Y-135186904D01*
X150556071Y-134996428D01*
X150556071Y-134758333D01*
X150603690Y-134567857D01*
X150651309Y-134472619D01*
X150698928Y-134425000D01*
X150794166Y-134377380D01*
X151698928Y-134805952D02*
X151603690Y-134758333D01*
X151556071Y-134710714D01*
X151508452Y-134615476D01*
X151508452Y-134567857D01*
X151556071Y-134472619D01*
X151603690Y-134425000D01*
X151698928Y-134377380D01*
X151889404Y-134377380D01*
X151984642Y-134425000D01*
X152032261Y-134472619D01*
X152079880Y-134567857D01*
X152079880Y-134615476D01*
X152032261Y-134710714D01*
X151984642Y-134758333D01*
X151889404Y-134805952D01*
X151698928Y-134805952D01*
X151603690Y-134853571D01*
X151556071Y-134901190D01*
X151508452Y-134996428D01*
X151508452Y-135186904D01*
X151556071Y-135282142D01*
X151603690Y-135329761D01*
X151698928Y-135377380D01*
X151889404Y-135377380D01*
X151984642Y-135329761D01*
X152032261Y-135282142D01*
X152079880Y-135186904D01*
X152079880Y-134996428D01*
X152032261Y-134901190D01*
X151984642Y-134853571D01*
X151889404Y-134805952D01*
X136222738Y-136027380D02*
X136794166Y-136027380D01*
X136508452Y-137027380D02*
X136508452Y-136027380D01*
X137270357Y-137027380D02*
X137175119Y-136979761D01*
X137127500Y-136932142D01*
X137079880Y-136836904D01*
X137079880Y-136551190D01*
X137127500Y-136455952D01*
X137175119Y-136408333D01*
X137270357Y-136360714D01*
X137413214Y-136360714D01*
X137508452Y-136408333D01*
X137556071Y-136455952D01*
X137603690Y-136551190D01*
X137603690Y-136836904D01*
X137556071Y-136932142D01*
X137508452Y-136979761D01*
X137413214Y-137027380D01*
X137270357Y-137027380D01*
X138032261Y-137027380D02*
X138032261Y-136027380D01*
X138032261Y-136408333D02*
X138127500Y-136360714D01*
X138317976Y-136360714D01*
X138413214Y-136408333D01*
X138460833Y-136455952D01*
X138508452Y-136551190D01*
X138508452Y-136836904D01*
X138460833Y-136932142D01*
X138413214Y-136979761D01*
X138317976Y-137027380D01*
X138127500Y-137027380D01*
X138032261Y-136979761D01*
X138937023Y-137027380D02*
X138937023Y-136360714D01*
X138937023Y-136027380D02*
X138889404Y-136075000D01*
X138937023Y-136122619D01*
X138984642Y-136075000D01*
X138937023Y-136027380D01*
X138937023Y-136122619D01*
X139841785Y-137027380D02*
X139841785Y-136503571D01*
X139794166Y-136408333D01*
X139698928Y-136360714D01*
X139508452Y-136360714D01*
X139413214Y-136408333D01*
X139841785Y-136979761D02*
X139746547Y-137027380D01*
X139508452Y-137027380D01*
X139413214Y-136979761D01*
X139365595Y-136884523D01*
X139365595Y-136789285D01*
X139413214Y-136694047D01*
X139508452Y-136646428D01*
X139746547Y-136646428D01*
X139841785Y-136598809D01*
X140270357Y-136979761D02*
X140365595Y-137027380D01*
X140556071Y-137027380D01*
X140651309Y-136979761D01*
X140698928Y-136884523D01*
X140698928Y-136836904D01*
X140651309Y-136741666D01*
X140556071Y-136694047D01*
X140413214Y-136694047D01*
X140317976Y-136646428D01*
X140270357Y-136551190D01*
X140270357Y-136503571D01*
X140317976Y-136408333D01*
X140413214Y-136360714D01*
X140556071Y-136360714D01*
X140651309Y-136408333D01*
X141889404Y-137027380D02*
X141889404Y-136027380D01*
X142222738Y-136741666D01*
X142556071Y-136027380D01*
X142556071Y-137027380D01*
X143460833Y-136360714D02*
X143460833Y-137027380D01*
X143032261Y-136360714D02*
X143032261Y-136884523D01*
X143079880Y-136979761D01*
X143175119Y-137027380D01*
X143317976Y-137027380D01*
X143413214Y-136979761D01*
X143460833Y-136932142D01*
X143079880Y-136027380D02*
X143127500Y-136075000D01*
X143079880Y-136122619D01*
X143032261Y-136075000D01*
X143079880Y-136027380D01*
X143079880Y-136122619D01*
X143460833Y-136027380D02*
X143508452Y-136075000D01*
X143460833Y-136122619D01*
X143413214Y-136075000D01*
X143460833Y-136027380D01*
X143460833Y-136122619D01*
X144079880Y-137027380D02*
X143984642Y-136979761D01*
X143937023Y-136884523D01*
X143937023Y-136027380D01*
X144603690Y-137027380D02*
X144508452Y-136979761D01*
X144460833Y-136884523D01*
X144460833Y-136027380D01*
X145365595Y-136979761D02*
X145270357Y-137027380D01*
X145079880Y-137027380D01*
X144984642Y-136979761D01*
X144937023Y-136884523D01*
X144937023Y-136503571D01*
X144984642Y-136408333D01*
X145079880Y-136360714D01*
X145270357Y-136360714D01*
X145365595Y-136408333D01*
X145413214Y-136503571D01*
X145413214Y-136598809D01*
X144937023Y-136694047D01*
X145841785Y-137027380D02*
X145841785Y-136360714D01*
X145841785Y-136551190D02*
X145889404Y-136455952D01*
X145937023Y-136408333D01*
X146032261Y-136360714D01*
X146127500Y-136360714D01*
X146508452Y-136979761D02*
X146508452Y-137027380D01*
X146460833Y-137122619D01*
X146413214Y-137170238D01*
X147556071Y-136360714D02*
X147937023Y-136360714D01*
X147698928Y-136027380D02*
X147698928Y-136884523D01*
X147746547Y-136979761D01*
X147841785Y-137027380D01*
X147937023Y-137027380D01*
X148175119Y-136360714D02*
X148365595Y-137027380D01*
X148556071Y-136551190D01*
X148746547Y-137027380D01*
X148937023Y-136360714D01*
X149746547Y-137027380D02*
X149746547Y-136503571D01*
X149698928Y-136408333D01*
X149603690Y-136360714D01*
X149413214Y-136360714D01*
X149317976Y-136408333D01*
X149746547Y-136979761D02*
X149651309Y-137027380D01*
X149413214Y-137027380D01*
X149317976Y-136979761D01*
X149270357Y-136884523D01*
X149270357Y-136789285D01*
X149317976Y-136694047D01*
X149413214Y-136646428D01*
X149651309Y-136646428D01*
X149746547Y-136598809D01*
X150222738Y-137027380D02*
X150222738Y-136360714D01*
X150222738Y-136455952D02*
X150270357Y-136408333D01*
X150365595Y-136360714D01*
X150508452Y-136360714D01*
X150603690Y-136408333D01*
X150651309Y-136503571D01*
X150651309Y-137027380D01*
X150651309Y-136503571D02*
X150698928Y-136408333D01*
X150794166Y-136360714D01*
X150937023Y-136360714D01*
X151032261Y-136408333D01*
X151079880Y-136503571D01*
X151079880Y-137027380D01*
X151556071Y-136932142D02*
X151603690Y-136979761D01*
X151556071Y-137027380D01*
X151508452Y-136979761D01*
X151556071Y-136932142D01*
X151556071Y-137027380D01*
X152032261Y-137027380D02*
X152032261Y-136360714D01*
X152032261Y-136027380D02*
X151984642Y-136075000D01*
X152032261Y-136122619D01*
X152079880Y-136075000D01*
X152032261Y-136027380D01*
X152032261Y-136122619D01*
X152508452Y-136360714D02*
X152508452Y-137027380D01*
X152508452Y-136455952D02*
X152556071Y-136408333D01*
X152651309Y-136360714D01*
X152794166Y-136360714D01*
X152889404Y-136408333D01*
X152937023Y-136503571D01*
X152937023Y-137027380D01*
X153270357Y-136360714D02*
X153651309Y-136360714D01*
X153413214Y-137027380D02*
X153413214Y-136170238D01*
X153460833Y-136075000D01*
X153556071Y-136027380D01*
X153651309Y-136027380D01*
X154127500Y-137027380D02*
X154032261Y-136979761D01*
X153984642Y-136932142D01*
X153937023Y-136836904D01*
X153937023Y-136551190D01*
X153984642Y-136455952D01*
X154032261Y-136408333D01*
X154127500Y-136360714D01*
X154270357Y-136360714D01*
X154365595Y-136408333D01*
X154413214Y-136455952D01*
X154460833Y-136551190D01*
X154460833Y-136836904D01*
X154413214Y-136932142D01*
X154365595Y-136979761D01*
X154270357Y-137027380D01*
X154127500Y-137027380D01*
X145380952Y-91952380D02*
X145380952Y-92666666D01*
X145333333Y-92809523D01*
X145238095Y-92904761D01*
X145095238Y-92952380D01*
X145000000Y-92952380D01*
X146333333Y-92952380D02*
X145857142Y-92952380D01*
X145857142Y-91952380D01*
X147238095Y-92857142D02*
X147190476Y-92904761D01*
X147047619Y-92952380D01*
X146952380Y-92952380D01*
X146809523Y-92904761D01*
X146714285Y-92809523D01*
X146666666Y-92714285D01*
X146619047Y-92523809D01*
X146619047Y-92380952D01*
X146666666Y-92190476D01*
X146714285Y-92095238D01*
X146809523Y-92000000D01*
X146952380Y-91952380D01*
X147047619Y-91952380D01*
X147190476Y-92000000D01*
X147238095Y-92047619D01*
X147952380Y-91952380D02*
X147952380Y-92666666D01*
X147904761Y-92809523D01*
X147809523Y-92904761D01*
X147666666Y-92952380D01*
X147571428Y-92952380D01*
X148904761Y-92952380D02*
X148428571Y-92952380D01*
X148428571Y-91952380D01*
X149809523Y-92857142D02*
X149761904Y-92904761D01*
X149619047Y-92952380D01*
X149523809Y-92952380D01*
X149380952Y-92904761D01*
X149285714Y-92809523D01*
X149238095Y-92714285D01*
X149190476Y-92523809D01*
X149190476Y-92380952D01*
X149238095Y-92190476D01*
X149285714Y-92095238D01*
X149380952Y-92000000D01*
X149523809Y-91952380D01*
X149619047Y-91952380D01*
X149761904Y-92000000D01*
X149809523Y-92047619D01*
X150523809Y-91952380D02*
X150523809Y-92666666D01*
X150476190Y-92809523D01*
X150380952Y-92904761D01*
X150238095Y-92952380D01*
X150142857Y-92952380D01*
X151476190Y-92952380D02*
X151000000Y-92952380D01*
X151000000Y-91952380D01*
X152380952Y-92857142D02*
X152333333Y-92904761D01*
X152190476Y-92952380D01*
X152095238Y-92952380D01*
X151952380Y-92904761D01*
X151857142Y-92809523D01*
X151809523Y-92714285D01*
X151761904Y-92523809D01*
X151761904Y-92380952D01*
X151809523Y-92190476D01*
X151857142Y-92095238D01*
X151952380Y-92000000D01*
X152095238Y-91952380D01*
X152190476Y-91952380D01*
X152333333Y-92000000D01*
X152380952Y-92047619D01*
X153095238Y-91952380D02*
X153095238Y-92666666D01*
X153047619Y-92809523D01*
X152952380Y-92904761D01*
X152809523Y-92952380D01*
X152714285Y-92952380D01*
X154047619Y-92952380D02*
X153571428Y-92952380D01*
X153571428Y-91952380D01*
X154952380Y-92857142D02*
X154904761Y-92904761D01*
X154761904Y-92952380D01*
X154666666Y-92952380D01*
X154523809Y-92904761D01*
X154428571Y-92809523D01*
X154380952Y-92714285D01*
X154333333Y-92523809D01*
X154333333Y-92380952D01*
X154380952Y-92190476D01*
X154428571Y-92095238D01*
X154523809Y-92000000D01*
X154666666Y-91952380D01*
X154761904Y-91952380D01*
X154904761Y-92000000D01*
X154952380Y-92047619D01*
D11*
%TO.C,J3*%
X171030000Y-131080000D02*
X165010000Y-131080000D01*
X165010000Y-131080000D02*
X165010000Y-138920000D01*
X165010000Y-138920000D02*
X171030000Y-138920000D01*
X171030000Y-138920000D02*
X171030000Y-131080000D01*
X170000000Y-130790000D02*
X166000000Y-130790000D01*
X165010000Y-132460000D02*
X166010000Y-132460000D01*
X166010000Y-132460000D02*
X166010000Y-137540000D01*
X166010000Y-137540000D02*
X165010000Y-137540000D01*
X166010000Y-132460000D02*
X166540000Y-132710000D01*
X166540000Y-132710000D02*
X166540000Y-137290000D01*
X166540000Y-137290000D02*
X166010000Y-137540000D01*
X165010000Y-132710000D02*
X166010000Y-132710000D01*
X165010000Y-137290000D02*
X166010000Y-137290000D01*
X171030000Y-131660000D02*
X170430000Y-131660000D01*
X170430000Y-131660000D02*
X170430000Y-133260000D01*
X170430000Y-133260000D02*
X171030000Y-133260000D01*
X171030000Y-134200000D02*
X170430000Y-134200000D01*
X170430000Y-134200000D02*
X170430000Y-135800000D01*
X170430000Y-135800000D02*
X171030000Y-135800000D01*
X171030000Y-136740000D02*
X170430000Y-136740000D01*
X170430000Y-136740000D02*
X170430000Y-138340000D01*
X170430000Y-138340000D02*
X171030000Y-138340000D01*
%TO.C,J2*%
X129400000Y-130980000D02*
X129400000Y-139020000D01*
X132600000Y-130980000D02*
X129400000Y-130980000D01*
X132600000Y-139020000D02*
X132600000Y-130980000D01*
X129400000Y-139020000D02*
X132600000Y-139020000D01*
%TO.C,T2*%
X177560000Y-72440000D02*
X122440000Y-72440000D01*
X177560000Y-127560000D02*
X177560000Y-72440000D01*
X122440000Y-127560000D02*
X177560000Y-127560000D01*
X122440000Y-72440000D02*
X122440000Y-127560000D01*
%TO.C,T3*%
X174910000Y-75090000D02*
X125090000Y-75090000D01*
X174910000Y-124910000D02*
X174910000Y-75090000D01*
X125090000Y-124910000D02*
X174910000Y-124910000D01*
X125090000Y-75090000D02*
X125090000Y-124910000D01*
%TO.C,F1*%
X161360000Y-60165000D02*
X161360000Y-63325000D01*
X161360000Y-60165000D02*
X138640000Y-60165000D01*
X161360000Y-69985000D02*
X138640000Y-69985000D01*
X161360000Y-66825000D02*
X161360000Y-69985000D01*
X138640000Y-66825000D02*
X138640000Y-69985000D01*
X138640000Y-60165000D02*
X138640000Y-63325000D01*
%TO.C,T1*%
X180060000Y-69940000D02*
X119940000Y-69940000D01*
X180060000Y-130060000D02*
X180060000Y-69940000D01*
X119940000Y-130060000D02*
X180060000Y-130060000D01*
X119940000Y-69940000D02*
X119940000Y-130060000D01*
%TO.C,J1*%
X132600000Y-69020000D02*
X132600000Y-60980000D01*
X129400000Y-69020000D02*
X132600000Y-69020000D01*
X129400000Y-60980000D02*
X129400000Y-69020000D01*
X132600000Y-60980000D02*
X129400000Y-60980000D01*
%TD*%
M02*
