%TF.GenerationSoftware,KiCad,Pcbnew,(5.1.9-0-10_14)*%
%TF.CreationDate,2021-04-08T14:44:04+02:00*%
%TF.ProjectId,Transformer-DBX286s,5472616e-7366-46f7-926d-65722d444258,rev?*%
%TF.SameCoordinates,Original*%
%TF.FileFunction,Copper,L2,Bot*%
%TF.FilePolarity,Positive*%
%FSLAX46Y46*%
G04 Gerber Fmt 4.6, Leading zero omitted, Abs format (unit mm)*
G04 Created by KiCad (PCBNEW (5.1.9-0-10_14)) date 2021-04-08 14:44:04*
%MOMM*%
%LPD*%
G01*
G04 APERTURE LIST*
%TA.AperFunction,ComponentPad*%
%ADD10O,2.190000X1.740000*%
%TD*%
%TA.AperFunction,ComponentPad*%
%ADD11C,2.000000*%
%TD*%
%TA.AperFunction,ComponentPad*%
%ADD12O,1.300000X1.800000*%
%TD*%
%TA.AperFunction,ComponentPad*%
%ADD13C,3.000000*%
%TD*%
%TA.AperFunction,Conductor*%
%ADD14C,0.254000*%
%TD*%
%TA.AperFunction,Conductor*%
%ADD15C,0.100000*%
%TD*%
G04 APERTURE END LIST*
D10*
%TO.P,J3,3*%
%TO.N,/OUT3*%
X168000000Y-137540000D03*
%TO.P,J3,2*%
%TO.N,/OUT2*%
X168000000Y-135000000D03*
%TO.P,J3,1*%
%TO.N,/OUT1*%
%TA.AperFunction,ComponentPad*%
G36*
G01*
X167154999Y-131590000D02*
X168845001Y-131590000D01*
G75*
G02*
X169095000Y-131839999I0J-249999D01*
G01*
X169095000Y-133080001D01*
G75*
G02*
X168845001Y-133330000I-249999J0D01*
G01*
X167154999Y-133330000D01*
G75*
G02*
X166905000Y-133080001I0J249999D01*
G01*
X166905000Y-131839999D01*
G75*
G02*
X167154999Y-131590000I249999J0D01*
G01*
G37*
%TD.AperFunction*%
%TD*%
D11*
%TO.P,J2,1*%
%TO.N,/IN2*%
X131000000Y-132460000D03*
X131000000Y-137540000D03*
%TD*%
D12*
%TO.P,T2,4*%
%TO.N,/IN2*%
X124600000Y-122860000D03*
%TO.P,T2,3*%
%TO.N,/IN3*%
X124600000Y-117780000D03*
%TO.P,T2,2*%
X124600000Y-82220000D03*
%TO.P,T2,1*%
%TO.N,/IN1*%
X124600000Y-77140000D03*
%TO.P,T2,5*%
%TO.N,/OUT1*%
X175400000Y-74600000D03*
%TO.P,T2,6*%
%TO.N,/OUT2*%
X175400000Y-79680000D03*
%TO.P,T2,7*%
X175400000Y-120320000D03*
%TO.P,T2,8*%
%TO.N,/OUT3*%
X175400000Y-125400000D03*
%TD*%
%TO.P,T3,4*%
%TO.N,/IN2*%
X127140000Y-120320000D03*
%TO.P,T3,3*%
%TO.N,/IN3*%
X127140000Y-115240000D03*
%TO.P,T3,2*%
X127140000Y-84760000D03*
%TO.P,T3,1*%
%TO.N,/IN1*%
X127140000Y-79680000D03*
%TO.P,T3,5*%
%TO.N,/OUT1*%
X172860000Y-77140000D03*
%TO.P,T3,6*%
%TO.N,/OUT2*%
X172860000Y-82220000D03*
%TO.P,T3,7*%
X172860000Y-117780000D03*
%TO.P,T3,8*%
%TO.N,/OUT3*%
X172860000Y-122860000D03*
%TD*%
D13*
%TO.P,F1,2*%
%TO.N,Net-(F1-Pad2)*%
X138750000Y-65075000D03*
%TO.P,F1,1*%
%TO.N,/IN1*%
X161250000Y-65075000D03*
%TD*%
D12*
%TO.P,T1,8*%
%TO.N,/OUT3*%
X177940000Y-127940000D03*
%TO.P,T1,7*%
%TO.N,/OUT2*%
X177940000Y-122860000D03*
%TO.P,T1,6*%
X177940000Y-77140000D03*
%TO.P,T1,5*%
%TO.N,/OUT1*%
X177940000Y-72060000D03*
%TO.P,T1,1*%
%TO.N,/IN1*%
X122060000Y-74600000D03*
%TO.P,T1,2*%
%TO.N,/IN3*%
X122060000Y-79680000D03*
%TO.P,T1,3*%
X122060000Y-120320000D03*
%TO.P,T1,4*%
%TO.N,/IN2*%
X122060000Y-125400000D03*
%TD*%
D11*
%TO.P,J1,1*%
%TO.N,Net-(F1-Pad2)*%
X131000000Y-67540000D03*
X131000000Y-62460000D03*
%TD*%
D14*
%TO.N,/IN3*%
X121344366Y-77992744D02*
X127966233Y-84614614D01*
X127991419Y-84635284D01*
X127995540Y-84639405D01*
X128002702Y-84645204D01*
X128032187Y-84668742D01*
X128041549Y-84676425D01*
X128042344Y-84676850D01*
X128071188Y-84699876D01*
X128121339Y-84732445D01*
X128171068Y-84765735D01*
X128179219Y-84770033D01*
X128239662Y-84801363D01*
X128268960Y-84872095D01*
X128283000Y-84978741D01*
X128283000Y-115021259D01*
X128268960Y-115127905D01*
X128239930Y-115197988D01*
X128165830Y-115237721D01*
X128116126Y-115270995D01*
X128065958Y-115303574D01*
X128058797Y-115309373D01*
X127991081Y-115364995D01*
X127991078Y-115364998D01*
X127966234Y-115385387D01*
X121344364Y-122007256D01*
X121260792Y-122011362D01*
X121152730Y-121984293D01*
X121057177Y-121927022D01*
X120982365Y-121844479D01*
X120934735Y-121743773D01*
X120917000Y-121624215D01*
X120917000Y-78375785D01*
X120934735Y-78256227D01*
X120982365Y-78155521D01*
X121057177Y-78072978D01*
X121152730Y-78015707D01*
X121260792Y-77988638D01*
X121344366Y-77992744D01*
%TA.AperFunction,Conductor*%
D15*
G36*
X121344366Y-77992744D02*
G01*
X127966233Y-84614614D01*
X127991419Y-84635284D01*
X127995540Y-84639405D01*
X128002702Y-84645204D01*
X128032187Y-84668742D01*
X128041549Y-84676425D01*
X128042344Y-84676850D01*
X128071188Y-84699876D01*
X128121339Y-84732445D01*
X128171068Y-84765735D01*
X128179219Y-84770033D01*
X128239662Y-84801363D01*
X128268960Y-84872095D01*
X128283000Y-84978741D01*
X128283000Y-115021259D01*
X128268960Y-115127905D01*
X128239930Y-115197988D01*
X128165830Y-115237721D01*
X128116126Y-115270995D01*
X128065958Y-115303574D01*
X128058797Y-115309373D01*
X127991081Y-115364995D01*
X127991078Y-115364998D01*
X127966234Y-115385387D01*
X121344364Y-122007256D01*
X121260792Y-122011362D01*
X121152730Y-121984293D01*
X121057177Y-121927022D01*
X120982365Y-121844479D01*
X120934735Y-121743773D01*
X120917000Y-121624215D01*
X120917000Y-78375785D01*
X120934735Y-78256227D01*
X120982365Y-78155521D01*
X121057177Y-78072978D01*
X121152730Y-78015707D01*
X121260792Y-77988638D01*
X121344366Y-77992744D01*
G37*
%TD.AperFunction*%
%TD*%
D14*
%TO.N,/IN2*%
X129143323Y-117496460D02*
X129234954Y-117534416D01*
X129320288Y-117599894D01*
X132610523Y-120890129D01*
X132676007Y-120975469D01*
X132713960Y-121067095D01*
X132728000Y-121173741D01*
X132728000Y-138853679D01*
X132713960Y-138960325D01*
X132676007Y-139051951D01*
X132615632Y-139130632D01*
X132536951Y-139191007D01*
X132445325Y-139228960D01*
X132338679Y-139243000D01*
X123637510Y-139243000D01*
X122988110Y-139065344D01*
X122292096Y-138733363D01*
X121665870Y-138283374D01*
X121129223Y-137729597D01*
X120917000Y-137413776D01*
X120917000Y-134725701D01*
X121715000Y-134725701D01*
X121715000Y-135274299D01*
X121822026Y-135812354D01*
X122031965Y-136319192D01*
X122336750Y-136775334D01*
X122724666Y-137163250D01*
X123180808Y-137468035D01*
X123687646Y-137677974D01*
X124225701Y-137785000D01*
X124774299Y-137785000D01*
X125312354Y-137677974D01*
X125819192Y-137468035D01*
X126275334Y-137163250D01*
X126663250Y-136775334D01*
X126968035Y-136319192D01*
X127177974Y-135812354D01*
X127285000Y-135274299D01*
X127285000Y-134725701D01*
X127177974Y-134187646D01*
X126968035Y-133680808D01*
X126663250Y-133224666D01*
X126275334Y-132836750D01*
X125819192Y-132531965D01*
X125312354Y-132322026D01*
X124774299Y-132215000D01*
X124225701Y-132215000D01*
X123687646Y-132322026D01*
X123180808Y-132531965D01*
X122724666Y-132836750D01*
X122336750Y-133224666D01*
X122031965Y-133680808D01*
X121822026Y-134187646D01*
X121715000Y-134725701D01*
X120917000Y-134725701D01*
X120917000Y-125618741D01*
X120931040Y-125512095D01*
X120960069Y-125442014D01*
X121034165Y-125402285D01*
X121083856Y-125369020D01*
X121134047Y-125336425D01*
X121141208Y-125330625D01*
X121208924Y-125275003D01*
X121208932Y-125274995D01*
X121233766Y-125254614D01*
X128998779Y-117489600D01*
X129045000Y-117483515D01*
X129143323Y-117496460D01*
%TA.AperFunction,Conductor*%
D15*
G36*
X129143323Y-117496460D02*
G01*
X129234954Y-117534416D01*
X129320288Y-117599894D01*
X132610523Y-120890129D01*
X132676007Y-120975469D01*
X132713960Y-121067095D01*
X132728000Y-121173741D01*
X132728000Y-138853679D01*
X132713960Y-138960325D01*
X132676007Y-139051951D01*
X132615632Y-139130632D01*
X132536951Y-139191007D01*
X132445325Y-139228960D01*
X132338679Y-139243000D01*
X123637510Y-139243000D01*
X122988110Y-139065344D01*
X122292096Y-138733363D01*
X121665870Y-138283374D01*
X121129223Y-137729597D01*
X120917000Y-137413776D01*
X120917000Y-134725701D01*
X121715000Y-134725701D01*
X121715000Y-135274299D01*
X121822026Y-135812354D01*
X122031965Y-136319192D01*
X122336750Y-136775334D01*
X122724666Y-137163250D01*
X123180808Y-137468035D01*
X123687646Y-137677974D01*
X124225701Y-137785000D01*
X124774299Y-137785000D01*
X125312354Y-137677974D01*
X125819192Y-137468035D01*
X126275334Y-137163250D01*
X126663250Y-136775334D01*
X126968035Y-136319192D01*
X127177974Y-135812354D01*
X127285000Y-135274299D01*
X127285000Y-134725701D01*
X127177974Y-134187646D01*
X126968035Y-133680808D01*
X126663250Y-133224666D01*
X126275334Y-132836750D01*
X125819192Y-132531965D01*
X125312354Y-132322026D01*
X124774299Y-132215000D01*
X124225701Y-132215000D01*
X123687646Y-132322026D01*
X123180808Y-132531965D01*
X122724666Y-132836750D01*
X122336750Y-133224666D01*
X122031965Y-133680808D01*
X121822026Y-134187646D01*
X121715000Y-134725701D01*
X120917000Y-134725701D01*
X120917000Y-125618741D01*
X120931040Y-125512095D01*
X120960069Y-125442014D01*
X121034165Y-125402285D01*
X121083856Y-125369020D01*
X121134047Y-125336425D01*
X121141208Y-125330625D01*
X121208924Y-125275003D01*
X121208932Y-125274995D01*
X121233766Y-125254614D01*
X128998779Y-117489600D01*
X129045000Y-117483515D01*
X129143323Y-117496460D01*
G37*
%TD.AperFunction*%
%TD*%
D14*
%TO.N,/IN1*%
X161528323Y-61616460D02*
X161619954Y-61654416D01*
X161705288Y-61719894D01*
X164785106Y-64799712D01*
X164850584Y-64885046D01*
X164888540Y-64976677D01*
X164901485Y-65075000D01*
X164888540Y-65173323D01*
X164850584Y-65264954D01*
X164785106Y-65350288D01*
X147524871Y-82610523D01*
X147439531Y-82676007D01*
X147347905Y-82713960D01*
X147241259Y-82728000D01*
X129263741Y-82728000D01*
X129209201Y-82720820D01*
X121233765Y-74745387D01*
X121208586Y-74724723D01*
X121204459Y-74720596D01*
X121197297Y-74714797D01*
X121167743Y-74691204D01*
X121158448Y-74683576D01*
X121157659Y-74683154D01*
X121128811Y-74660125D01*
X121078655Y-74627553D01*
X121028932Y-74594266D01*
X121020780Y-74589968D01*
X120960339Y-74558639D01*
X120931040Y-74487905D01*
X120917000Y-74381259D01*
X120917000Y-73211321D01*
X120931040Y-73104675D01*
X120968993Y-73013049D01*
X121029368Y-72934368D01*
X121108049Y-72873993D01*
X121199675Y-72836040D01*
X121306321Y-72822000D01*
X149789580Y-72822000D01*
X149806157Y-72820913D01*
X149937637Y-72803603D01*
X149969660Y-72795023D01*
X150092180Y-72744274D01*
X150120893Y-72727697D01*
X150226103Y-72646966D01*
X150238593Y-72636013D01*
X161154712Y-61719894D01*
X161240046Y-61654416D01*
X161331677Y-61616460D01*
X161430000Y-61603515D01*
X161528323Y-61616460D01*
%TA.AperFunction,Conductor*%
D15*
G36*
X161528323Y-61616460D02*
G01*
X161619954Y-61654416D01*
X161705288Y-61719894D01*
X164785106Y-64799712D01*
X164850584Y-64885046D01*
X164888540Y-64976677D01*
X164901485Y-65075000D01*
X164888540Y-65173323D01*
X164850584Y-65264954D01*
X164785106Y-65350288D01*
X147524871Y-82610523D01*
X147439531Y-82676007D01*
X147347905Y-82713960D01*
X147241259Y-82728000D01*
X129263741Y-82728000D01*
X129209201Y-82720820D01*
X121233765Y-74745387D01*
X121208586Y-74724723D01*
X121204459Y-74720596D01*
X121197297Y-74714797D01*
X121167743Y-74691204D01*
X121158448Y-74683576D01*
X121157659Y-74683154D01*
X121128811Y-74660125D01*
X121078655Y-74627553D01*
X121028932Y-74594266D01*
X121020780Y-74589968D01*
X120960339Y-74558639D01*
X120931040Y-74487905D01*
X120917000Y-74381259D01*
X120917000Y-73211321D01*
X120931040Y-73104675D01*
X120968993Y-73013049D01*
X121029368Y-72934368D01*
X121108049Y-72873993D01*
X121199675Y-72836040D01*
X121306321Y-72822000D01*
X149789580Y-72822000D01*
X149806157Y-72820913D01*
X149937637Y-72803603D01*
X149969660Y-72795023D01*
X150092180Y-72744274D01*
X150120893Y-72727697D01*
X150226103Y-72646966D01*
X150238593Y-72636013D01*
X161154712Y-61719894D01*
X161240046Y-61654416D01*
X161331677Y-61616460D01*
X161430000Y-61603515D01*
X161528323Y-61616460D01*
G37*
%TD.AperFunction*%
%TD*%
D14*
%TO.N,Net-(F1-Pad2)*%
X140983000Y-69003679D02*
X140968960Y-69110325D01*
X140931007Y-69201951D01*
X140870632Y-69280632D01*
X140791951Y-69341007D01*
X140700325Y-69378960D01*
X140593679Y-69393000D01*
X129561321Y-69393000D01*
X129454675Y-69378960D01*
X129363049Y-69341007D01*
X129284368Y-69280632D01*
X129223993Y-69201951D01*
X129186040Y-69110325D01*
X129172000Y-69003679D01*
X129172000Y-60660000D01*
X140983000Y-60660000D01*
X140983000Y-69003679D01*
%TA.AperFunction,Conductor*%
D15*
G36*
X140983000Y-69003679D02*
G01*
X140968960Y-69110325D01*
X140931007Y-69201951D01*
X140870632Y-69280632D01*
X140791951Y-69341007D01*
X140700325Y-69378960D01*
X140593679Y-69393000D01*
X129561321Y-69393000D01*
X129454675Y-69378960D01*
X129363049Y-69341007D01*
X129284368Y-69280632D01*
X129223993Y-69201951D01*
X129186040Y-69110325D01*
X129172000Y-69003679D01*
X129172000Y-60660000D01*
X140983000Y-60660000D01*
X140983000Y-69003679D01*
G37*
%TD.AperFunction*%
%TD*%
D14*
%TO.N,/OUT3*%
X177893777Y-126251803D02*
X177964519Y-126312825D01*
X178084259Y-126401631D01*
X178136078Y-126436256D01*
X178248609Y-126489478D01*
X178388973Y-126539700D01*
X178571736Y-126576053D01*
X178720635Y-126583368D01*
X178782951Y-126583368D01*
X178906086Y-126565103D01*
X178921609Y-126561215D01*
X178965523Y-126605129D01*
X179031007Y-126690469D01*
X179068960Y-126782095D01*
X179083000Y-126888741D01*
X179083000Y-137417156D01*
X178783374Y-137834130D01*
X178229597Y-138370777D01*
X177876572Y-138608000D01*
X167026321Y-138608000D01*
X166919675Y-138593960D01*
X166828049Y-138556007D01*
X166749368Y-138495632D01*
X166688993Y-138416951D01*
X166651040Y-138325325D01*
X166637000Y-138218679D01*
X166637000Y-136761654D01*
X166643518Y-136764354D01*
X166803634Y-136807257D01*
X166935114Y-136824567D01*
X167018000Y-136830000D01*
X172352000Y-136830000D01*
X172434886Y-136824567D01*
X172566366Y-136807257D01*
X172726482Y-136764354D01*
X172849002Y-136713605D01*
X172992565Y-136630719D01*
X173097775Y-136549988D01*
X173150769Y-136496994D01*
X173336750Y-136775334D01*
X173724666Y-137163250D01*
X174180808Y-137468035D01*
X174687646Y-137677974D01*
X175225701Y-137785000D01*
X175774299Y-137785000D01*
X176312354Y-137677974D01*
X176819192Y-137468035D01*
X177275334Y-137163250D01*
X177663250Y-136775334D01*
X177968035Y-136319192D01*
X178177974Y-135812354D01*
X178285000Y-135274299D01*
X178285000Y-134725701D01*
X178177974Y-134187646D01*
X177968035Y-133680808D01*
X177663250Y-133224666D01*
X177275334Y-132836750D01*
X176819192Y-132531965D01*
X176312354Y-132322026D01*
X175774299Y-132215000D01*
X175225701Y-132215000D01*
X174687646Y-132322026D01*
X174180808Y-132531965D01*
X173724666Y-132836750D01*
X173495000Y-133066416D01*
X173495000Y-127458810D01*
X173488152Y-127365801D01*
X173466355Y-127218591D01*
X173412450Y-127040555D01*
X173348929Y-126905977D01*
X173303034Y-126824787D01*
X172229606Y-125214647D01*
X172226178Y-125207384D01*
X172225000Y-125199430D01*
X172225000Y-120583026D01*
X177893777Y-126251803D01*
%TA.AperFunction,Conductor*%
D15*
G36*
X177893777Y-126251803D02*
G01*
X177964519Y-126312825D01*
X178084259Y-126401631D01*
X178136078Y-126436256D01*
X178248609Y-126489478D01*
X178388973Y-126539700D01*
X178571736Y-126576053D01*
X178720635Y-126583368D01*
X178782951Y-126583368D01*
X178906086Y-126565103D01*
X178921609Y-126561215D01*
X178965523Y-126605129D01*
X179031007Y-126690469D01*
X179068960Y-126782095D01*
X179083000Y-126888741D01*
X179083000Y-137417156D01*
X178783374Y-137834130D01*
X178229597Y-138370777D01*
X177876572Y-138608000D01*
X167026321Y-138608000D01*
X166919675Y-138593960D01*
X166828049Y-138556007D01*
X166749368Y-138495632D01*
X166688993Y-138416951D01*
X166651040Y-138325325D01*
X166637000Y-138218679D01*
X166637000Y-136761654D01*
X166643518Y-136764354D01*
X166803634Y-136807257D01*
X166935114Y-136824567D01*
X167018000Y-136830000D01*
X172352000Y-136830000D01*
X172434886Y-136824567D01*
X172566366Y-136807257D01*
X172726482Y-136764354D01*
X172849002Y-136713605D01*
X172992565Y-136630719D01*
X173097775Y-136549988D01*
X173150769Y-136496994D01*
X173336750Y-136775334D01*
X173724666Y-137163250D01*
X174180808Y-137468035D01*
X174687646Y-137677974D01*
X175225701Y-137785000D01*
X175774299Y-137785000D01*
X176312354Y-137677974D01*
X176819192Y-137468035D01*
X177275334Y-137163250D01*
X177663250Y-136775334D01*
X177968035Y-136319192D01*
X178177974Y-135812354D01*
X178285000Y-135274299D01*
X178285000Y-134725701D01*
X178177974Y-134187646D01*
X177968035Y-133680808D01*
X177663250Y-133224666D01*
X177275334Y-132836750D01*
X176819192Y-132531965D01*
X176312354Y-132322026D01*
X175774299Y-132215000D01*
X175225701Y-132215000D01*
X174687646Y-132322026D01*
X174180808Y-132531965D01*
X173724666Y-132836750D01*
X173495000Y-133066416D01*
X173495000Y-127458810D01*
X173488152Y-127365801D01*
X173466355Y-127218591D01*
X173412450Y-127040555D01*
X173348929Y-126905977D01*
X173303034Y-126824787D01*
X172229606Y-125214647D01*
X172226178Y-125207384D01*
X172225000Y-125199430D01*
X172225000Y-120583026D01*
X177893777Y-126251803D01*
G37*
%TD.AperFunction*%
%TD*%
D14*
%TO.N,/OUT2*%
X178847270Y-74205707D02*
X178942823Y-74262978D01*
X179017635Y-74345521D01*
X179065265Y-74446227D01*
X179083000Y-74565785D01*
X179083000Y-125434215D01*
X179065265Y-125553773D01*
X179017635Y-125654479D01*
X178942823Y-125737022D01*
X178847270Y-125794293D01*
X178739208Y-125821362D01*
X178627940Y-125815895D01*
X178523053Y-125778367D01*
X178425973Y-125706367D01*
X172547013Y-119827407D01*
X172532864Y-119815203D01*
X172413124Y-119726397D01*
X172391770Y-119713598D01*
X172380254Y-119708828D01*
X172239890Y-119658606D01*
X172203338Y-119651335D01*
X172054439Y-119644020D01*
X172029572Y-119645242D01*
X172017348Y-119647673D01*
X171872738Y-119683896D01*
X171838306Y-119698158D01*
X171710437Y-119774799D01*
X171690440Y-119789630D01*
X171681627Y-119798443D01*
X171581512Y-119908903D01*
X171566681Y-119928900D01*
X171560806Y-119939892D01*
X171497067Y-120074657D01*
X171488680Y-120098098D01*
X171486249Y-120110321D01*
X171464375Y-120257785D01*
X171463000Y-120276420D01*
X171463000Y-125246190D01*
X171464370Y-125264792D01*
X171486167Y-125412002D01*
X171496948Y-125447609D01*
X171560469Y-125582187D01*
X171569648Y-125598425D01*
X172663825Y-127239688D01*
X172715327Y-127348803D01*
X172733000Y-127468159D01*
X172733000Y-134635209D01*
X172715000Y-134725701D01*
X172715000Y-135274299D01*
X172733000Y-135364791D01*
X172733000Y-135678679D01*
X172718960Y-135785325D01*
X172681007Y-135876951D01*
X172620632Y-135955632D01*
X172541951Y-136016007D01*
X172450325Y-136053960D01*
X172343679Y-136068000D01*
X168557032Y-136068000D01*
X168520032Y-136056776D01*
X168298936Y-136035000D01*
X167701064Y-136035000D01*
X167479968Y-136056776D01*
X167442968Y-136068000D01*
X167026321Y-136068000D01*
X166919675Y-136053960D01*
X166828049Y-136016007D01*
X166749368Y-135955632D01*
X166688993Y-135876951D01*
X166651040Y-135785325D01*
X166637000Y-135678679D01*
X166637000Y-134171321D01*
X166651040Y-134064675D01*
X166688993Y-133973049D01*
X166749368Y-133894368D01*
X166771688Y-133877241D01*
X166815149Y-133900472D01*
X166981745Y-133951008D01*
X167154999Y-133968072D01*
X168845001Y-133968072D01*
X169018255Y-133951008D01*
X169184851Y-133900472D01*
X169338387Y-133818405D01*
X169472962Y-133707962D01*
X169474129Y-133706540D01*
X169479600Y-133704274D01*
X169508313Y-133687697D01*
X169613523Y-133606966D01*
X169636966Y-133583523D01*
X169717697Y-133478313D01*
X169734274Y-133449600D01*
X169785023Y-133327080D01*
X169793603Y-133295057D01*
X169810913Y-133163577D01*
X169812000Y-133147000D01*
X169812000Y-83073741D01*
X169826040Y-82967095D01*
X169863993Y-82875469D01*
X169929477Y-82790129D01*
X178425973Y-74293633D01*
X178523053Y-74221633D01*
X178627940Y-74184105D01*
X178739208Y-74178638D01*
X178847270Y-74205707D01*
%TA.AperFunction,Conductor*%
D15*
G36*
X178847270Y-74205707D02*
G01*
X178942823Y-74262978D01*
X179017635Y-74345521D01*
X179065265Y-74446227D01*
X179083000Y-74565785D01*
X179083000Y-125434215D01*
X179065265Y-125553773D01*
X179017635Y-125654479D01*
X178942823Y-125737022D01*
X178847270Y-125794293D01*
X178739208Y-125821362D01*
X178627940Y-125815895D01*
X178523053Y-125778367D01*
X178425973Y-125706367D01*
X172547013Y-119827407D01*
X172532864Y-119815203D01*
X172413124Y-119726397D01*
X172391770Y-119713598D01*
X172380254Y-119708828D01*
X172239890Y-119658606D01*
X172203338Y-119651335D01*
X172054439Y-119644020D01*
X172029572Y-119645242D01*
X172017348Y-119647673D01*
X171872738Y-119683896D01*
X171838306Y-119698158D01*
X171710437Y-119774799D01*
X171690440Y-119789630D01*
X171681627Y-119798443D01*
X171581512Y-119908903D01*
X171566681Y-119928900D01*
X171560806Y-119939892D01*
X171497067Y-120074657D01*
X171488680Y-120098098D01*
X171486249Y-120110321D01*
X171464375Y-120257785D01*
X171463000Y-120276420D01*
X171463000Y-125246190D01*
X171464370Y-125264792D01*
X171486167Y-125412002D01*
X171496948Y-125447609D01*
X171560469Y-125582187D01*
X171569648Y-125598425D01*
X172663825Y-127239688D01*
X172715327Y-127348803D01*
X172733000Y-127468159D01*
X172733000Y-134635209D01*
X172715000Y-134725701D01*
X172715000Y-135274299D01*
X172733000Y-135364791D01*
X172733000Y-135678679D01*
X172718960Y-135785325D01*
X172681007Y-135876951D01*
X172620632Y-135955632D01*
X172541951Y-136016007D01*
X172450325Y-136053960D01*
X172343679Y-136068000D01*
X168557032Y-136068000D01*
X168520032Y-136056776D01*
X168298936Y-136035000D01*
X167701064Y-136035000D01*
X167479968Y-136056776D01*
X167442968Y-136068000D01*
X167026321Y-136068000D01*
X166919675Y-136053960D01*
X166828049Y-136016007D01*
X166749368Y-135955632D01*
X166688993Y-135876951D01*
X166651040Y-135785325D01*
X166637000Y-135678679D01*
X166637000Y-134171321D01*
X166651040Y-134064675D01*
X166688993Y-133973049D01*
X166749368Y-133894368D01*
X166771688Y-133877241D01*
X166815149Y-133900472D01*
X166981745Y-133951008D01*
X167154999Y-133968072D01*
X168845001Y-133968072D01*
X169018255Y-133951008D01*
X169184851Y-133900472D01*
X169338387Y-133818405D01*
X169472962Y-133707962D01*
X169474129Y-133706540D01*
X169479600Y-133704274D01*
X169508313Y-133687697D01*
X169613523Y-133606966D01*
X169636966Y-133583523D01*
X169717697Y-133478313D01*
X169734274Y-133449600D01*
X169785023Y-133327080D01*
X169793603Y-133295057D01*
X169810913Y-133163577D01*
X169812000Y-133147000D01*
X169812000Y-83073741D01*
X169826040Y-82967095D01*
X169863993Y-82875469D01*
X169929477Y-82790129D01*
X178425973Y-74293633D01*
X178523053Y-74221633D01*
X178627940Y-74184105D01*
X178739208Y-74178638D01*
X178847270Y-74205707D01*
G37*
%TD.AperFunction*%
%TD*%
D14*
%TO.N,/OUT1*%
X178800325Y-70296040D02*
X178891951Y-70333993D01*
X178970632Y-70394368D01*
X179031007Y-70473049D01*
X179068960Y-70564675D01*
X179083000Y-70671321D01*
X179083000Y-73111259D01*
X179068960Y-73217905D01*
X179031007Y-73309531D01*
X178965523Y-73394871D01*
X178921609Y-73438785D01*
X178906086Y-73434897D01*
X178844967Y-73422740D01*
X178720635Y-73416632D01*
X178571736Y-73423947D01*
X178388973Y-73460300D01*
X178248609Y-73510522D01*
X178191030Y-73534372D01*
X178084259Y-73598369D01*
X177964519Y-73687175D01*
X177893777Y-73748197D01*
X169384777Y-82257197D01*
X169330012Y-82319645D01*
X169249281Y-82424855D01*
X169166395Y-82568418D01*
X169115646Y-82690938D01*
X169072743Y-82851054D01*
X169055433Y-82982534D01*
X169050000Y-83065420D01*
X169050000Y-133020000D01*
X167018000Y-133020000D01*
X166935114Y-133025433D01*
X166803634Y-133042743D01*
X166643518Y-133085646D01*
X166637000Y-133088346D01*
X166637000Y-81168741D01*
X166651040Y-81062095D01*
X166688993Y-80970469D01*
X166754477Y-80885129D01*
X177240129Y-70399477D01*
X177325469Y-70333993D01*
X177417095Y-70296040D01*
X177523741Y-70282000D01*
X178693679Y-70282000D01*
X178800325Y-70296040D01*
%TA.AperFunction,Conductor*%
D15*
G36*
X178800325Y-70296040D02*
G01*
X178891951Y-70333993D01*
X178970632Y-70394368D01*
X179031007Y-70473049D01*
X179068960Y-70564675D01*
X179083000Y-70671321D01*
X179083000Y-73111259D01*
X179068960Y-73217905D01*
X179031007Y-73309531D01*
X178965523Y-73394871D01*
X178921609Y-73438785D01*
X178906086Y-73434897D01*
X178844967Y-73422740D01*
X178720635Y-73416632D01*
X178571736Y-73423947D01*
X178388973Y-73460300D01*
X178248609Y-73510522D01*
X178191030Y-73534372D01*
X178084259Y-73598369D01*
X177964519Y-73687175D01*
X177893777Y-73748197D01*
X169384777Y-82257197D01*
X169330012Y-82319645D01*
X169249281Y-82424855D01*
X169166395Y-82568418D01*
X169115646Y-82690938D01*
X169072743Y-82851054D01*
X169055433Y-82982534D01*
X169050000Y-83065420D01*
X169050000Y-133020000D01*
X167018000Y-133020000D01*
X166935114Y-133025433D01*
X166803634Y-133042743D01*
X166643518Y-133085646D01*
X166637000Y-133088346D01*
X166637000Y-81168741D01*
X166651040Y-81062095D01*
X166688993Y-80970469D01*
X166754477Y-80885129D01*
X177240129Y-70399477D01*
X177325469Y-70333993D01*
X177417095Y-70296040D01*
X177523741Y-70282000D01*
X178693679Y-70282000D01*
X178800325Y-70296040D01*
G37*
%TD.AperFunction*%
%TD*%
M02*
